<svg width="172" height="226" viewBox="0 0 172 226" fill="none" xmlns="http://www.w3.org/2000/svg">
<path d="M4 172V56L65.5 109.75L121.403 158.608C125.095 161.835 128.086 165.785 130.192 170.214V170.214C141.85 194.736 123.087 222.817 95.9696 221.43L92.0522 221.23C77.3556 220.478 64.397 211.353 58.7371 197.769L58 196L52.5 177" stroke="white" stroke-width="8" stroke-linecap="round" stroke-linejoin="round"/>
<path d="M168 53.5V169.5L106.5 115.75L50.5973 66.892C46.905 63.6649 43.9137 59.715 41.8082 55.2863V55.2863C30.15 30.7639 48.9132 2.68306 76.0304 4.06973L79.9478 4.27006C94.6444 5.02159 107.603 14.1472 113.263 27.731L114 29.5L119.5 48.5" stroke="white" stroke-width="8" stroke-linecap="round" stroke-linejoin="round"/>
</svg>
